# xmcd
#
# Track frame offsets:
#	150
#	10133
#	23748
#	45810
#	57964
#	75217
#	90371
#	101208
#	120176
#
# Disc length: 1777 seconds
#
# Revision: 1
# Processed by: cddbd v1.5.2PL0 Copyright (c) Steve Scherf et al.
# Submitted via: audiograbber 1.83.01
#
DISCID=5006ef09
DTITLE=Centurian - Contra Rationem
DYEAR=2013
DGENRE=Black Metal
TTITLE0=Thou shallt bleed for the Lord thy God
TTITLE1=Crown of bones
TTITLE2=Fest of the cross
TTITLE3=Judas among twelve
TTITLE4=Antinomian
TTITLE5=The will of the torch
TTITLE6=Sin upon man
TTITLE7=Damnatio memoriae
TTITLE8=Adversus
EXTD=
EXTT0=
EXTT1=
EXTT2=
EXTT3=
EXTT4=
EXTT5=
EXTT6=
EXTT7=
EXTT8=
PLAYORDER=
